<svg width="200" height="200" xmlns="http://www.w3.org/2000/svg" preserveAspectRatio="xMidYMid meet">

 <g>
  <title>background</title>
  <rect fill="none" id="canvas_background" height="202" width="202" y="-1" x="-1"/>
 </g>
 <g>
  <title>Layer 1</title>
  <g id="svg_1" fill="#003945" transform="translate(0,149) scale(0.10000000149011612,-0.10000000149011612) ">
   <path id="svg_2" d="m1410.439209,1218.859802c-56,-20 -161,-80 -240,-138l-73,-52l-100,-2c-204,-3 -364,-89 -465,-249c-67,-106 -85,-171 -86,-310c0,-90 5,-134 18,-176l19,-56l-32,-74c-37,-88 -70,-217 -70,-277c0,-131 110,-181 246,-112c194,97 485,387 686,680c156,228 255,416 289,549c31,120 23,176 -31,218c-20,16 -115,16 -161,-1zm14,-125c35,-13 51,-68 45,-153c-3,-38 -8,-71 -11,-74c-3,-3 -26,11 -53,31c-55,43 -110,71 -179,95l-49,17l49,29c48,28 137,63 162,64c6,0 23,-4 36,-9zm-735,-1092l73,-48l-38,-19c-67,-35 -129,-51 -166,-45c-29,4 -39,13 -52,40c-17,36 -16,67 7,177l10,50l47,-54c25,-29 79,-75 119,-101z"/>
   <path id="svg_3" d="m1498.439209,624.859802c-56,-112 -131,-232 -204,-329c-79,-105 -229,-269 -296,-323c-31,-25 -56,-51 -57,-57c0,-19 168,-17 249,2c185,44 347,204 395,390c33,132 31,221 -10,353c-9,28 -20,52 -25,52c-4,0 -28,-40 -52,-88z"/>
  </g>
 </g>
</svg>