<?xml version="1.0" standalone="no"?><!DOCTYPE svg PUBLIC "-//W3C//DTD SVG 1.1//EN" "http://www.w3.org/Graphics/SVG/1.1/DTD/svg11.dtd"><svg t="1544190435361" class="icon" style="" viewBox="0 0 1024 1024" version="1.1" xmlns="http://www.w3.org/2000/svg" p-id="1464" xmlns:xlink="http://www.w3.org/1999/xlink" width="200" height="200"><defs><style type="text/css"></style></defs><path d="M752 80H272c-70.4 0-128 57.6-128 128v608c0 70.4 57.6 128 128 128h353.6c33.6 0 65.6-12.8 91.2-36.8l126.4-126.4c24-24 36.8-56 36.8-91.2V208c0-70.4-57.6-128-128-128zM208 816V208c0-35.2 28.8-64 64-64h480c35.2 0 64 28.8 64 64v464h-96c-70.4 0-128 57.6-128 128v80H272c-35.2 0-64-28.8-64-64z m462.4 44.8c-4.8 4.8-9.6 8-14.4 11.2V800c0-35.2 28.8-64 64-64h75.2l-124.8 124.8z" fill="#3d4852" p-id="1465"></path><path d="M368 352h288c17.6 0 32-14.4 32-32s-14.4-32-32-32H368c-17.6 0-32 14.4-32 32s14.4 32 32 32zM496 608h-128c-17.6 0-32 14.4-32 32s14.4 32 32 32h128c17.6 0 32-14.4 32-32s-14.4-32-32-32zM368 512h288c17.6 0 32-14.4 32-32s-14.4-32-32-32H368c-17.6 0-32 14.4-32 32s14.4 32 32 32z" fill="#3d4852" p-id="1466"></path></svg>