<svg id="Layer_1" data-name="Layer 1" xmlns="http://www.w3.org/2000/svg" viewBox="0 0 15 15"><defs><style>.cls-1{fill:#3d4852;}</style></defs><title>Artboard 1</title><path id="a" class="cls-1" d="M3.06.5h8.88a2.85,2.85,0,0,1,1.54.27,1.81,1.81,0,0,1,.75.75,2.85,2.85,0,0,1,.27,1.54v8.88a2.85,2.85,0,0,1-.27,1.54,1.81,1.81,0,0,1-.75.75,2.85,2.85,0,0,1-1.54.27H3.06a2.85,2.85,0,0,1-1.54-.27,1.81,1.81,0,0,1-.75-.75A2.85,2.85,0,0,1,.5,11.94V3.06A2.85,2.85,0,0,1,.77,1.52,1.81,1.81,0,0,1,1.52.77,2.85,2.85,0,0,1,3.06.5ZM3,2A1,1,0,0,0,2,3V6A1,1,0,0,0,3,7H6A1,1,0,0,0,7,6V3A1,1,0,0,0,6,2ZM8,2V3H9V2Zm2,0V3h1V2ZM9,3V4h1V3Zm1,1V5h1V4ZM8,5V6H9V5ZM9,6V7h1V6Zm3,0V7h1V6Zm0-2V5h1V4ZM11,4V5h1V4Zm1-2V3h1V2ZM11,6V7h1V6ZM8,4V5H9V4Zm3-1V4h1V3ZM9,8A1,1,0,0,0,8,9v3a1,1,0,0,0,1,1h3a1,1,0,0,0,1-1V9a1,1,0,0,0-1-1ZM3,8A1,1,0,0,0,2,9v3a1,1,0,0,0,1,1H6a1,1,0,0,0,1-1V9A1,1,0,0,0,6,8ZM3,9H6v3H3ZM3,3H6V6H3ZM9,9h3v3H9ZM4,4V5H5V4Zm6,6v1h1V10ZM4,10v1H5V10Z"/></svg>