<svg width="43" height="43" viewBox="0 0 43 43" fill="none" xmlns="http://www.w3.org/2000/svg">
<path fill-rule="evenodd" clip-rule="evenodd" d="M35.3998 22.3408C35.3998 21.2772 35.3043 20.2545 35.1271 19.2727H21.0003V25.0748H29.0727C28.725 26.9497 27.6682 28.5383 26.0797 29.6019V33.3654H30.9272C33.7635 30.7541 35.3998 26.9088 35.3998 22.3408Z" fill="#003945"/>
<path fill-rule="evenodd" clip-rule="evenodd" d="M20.9997 36.9988C25.0496 36.9988 28.4449 35.6557 30.9266 33.3648L26.0791 29.6013C24.7359 30.5013 23.0178 31.0331 20.9997 31.0331C17.093 31.0331 13.7863 28.3946 12.6068 24.8492H7.59564V28.7355C10.0637 33.6376 15.1363 36.9988 20.9997 36.9988Z" fill="#003945"/>
<path fill-rule="evenodd" clip-rule="evenodd" d="M12.6066 24.8493C12.3066 23.9494 12.1361 22.988 12.1361 21.9994C12.1361 21.0108 12.3066 20.0495 12.6066 19.1495V15.2633H7.5954C6.57952 17.2882 6 19.5791 6 21.9994C6 24.4198 6.57952 26.7106 7.5954 28.7356L12.6066 24.8493Z" fill="#003945"/>
<path fill-rule="evenodd" clip-rule="evenodd" d="M20.9997 12.9657C23.2019 12.9657 25.1791 13.7225 26.7336 15.2088L31.0357 10.9067C28.4381 8.48631 25.0427 7 20.9997 7C15.1363 7 10.0637 10.3612 7.59564 15.2633L12.6068 19.1496C13.7863 15.6042 17.093 12.9657 20.9997 12.9657Z" fill="#003945"/>
</svg>
