<svg width="320" height="320" xmlns="http://www.w3.org/2000/svg">
 <defs>
  <linearGradient y2="0.75" y1="0.1667" x2="0.41671" x1="0.66671" id="A">
   <stop offset="0" stop-color="#424d58"/>
   <stop offset="1" stop-color="#272a2f"/>
  </linearGradient>
 </defs>
 <g>
  <title>Layer 1</title>
  <circle id="svg_1" cx="162" cy="161" r="120" fill="url(#A)"/>
  <path id="svg_2" fill="#fff" d="m91.942,159.96l80.81,-33.295c7.977,-3.468 35.03,-14.566 35.03,-14.566s12.486,-4.855 11.445,6.936c-0.347,4.855 -3.12,21.85 -5.896,40.23l-8.67,54.45s-0.694,7.977 -6.6,9.364s-15.607,-4.855 -17.34,-6.243c-1.387,-1.04 -26.012,-16.647 -35.03,-24.277c-2.428,-2.08 -5.202,-6.243 0.347,-11.098c12.486,-11.445 27.4,-25.665 36.416,-34.682c4.162,-4.162 8.324,-13.873 -9.017,-2.08l-48.902,32.948s-5.55,3.468 -15.954,0.347s-22.543,-7.283 -22.543,-7.283s-8.324,-5.202 5.896,-10.75l0.008,-0.001z"/>
 </g>
</svg>