<svg width="297" height="297" xmlns="http://www.w3.org/2000/svg">

 <g>
  <title>background</title>
  <rect fill="none" id="canvas_background" height="402" width="582" y="-1" x="-1"/>
 </g>
 <g>
  <title>Layer 1</title>
  <g stroke="null" id="layer1">
   <path fill="#003945" stroke-width="0.438656" id="path3695" d="m136.02662,262.933741c-37.128874,-3.708847 -70.788975,-23.270897 -88.936309,-51.686673c-7.403618,-11.592939 -13.123728,-26.23295 -14.924202,-38.19702c-0.807442,-5.365351 -1.358198,-17.867115 -1.10322,-25.042111c0.922582,-25.961272 6.973959,-46.095738 19.213583,-63.928394c4.285473,-6.243769 7.084713,-9.51806 13.11092,-15.335901c9.631358,-9.298385 19.31826,-15.864568 33.046615,-22.40031c12.249529,-5.83171 22.203731,-8.872873 35.154023,-10.740032c6.601583,-0.95181 21.672553,-0.857994 28.546898,0.177424c21.943074,3.306015 41.253392,12.712355 59.673895,29.068092c19.662477,17.458422 32.698785,37.848441 37.45636,58.585134c1.787275,7.790101 2.107073,10.863259 2.127002,20.438187c0.021293,9.706217 -0.229037,12.370969 -1.967833,21.038563l-1.109432,5.530318l-4.128489,0.801812c-11.282368,2.191168 -25.731677,6.113676 -34.843946,9.459054c-7.030947,2.581312 -8.457992,3.164892 -18.642267,7.624241c-9.767727,4.276964 -14.194219,5.967944 -19.487948,7.444592c-11.064065,3.086325 -22.876423,3.347946 -30.8563,0.683346c-10.739921,-3.586178 -18.772687,-12.15805 -20.520248,-21.897546c-0.586819,-3.27071 -0.235416,-9.644269 0.720947,-13.070042c2.300901,-8.243357 7.387851,-16.735409 15.269822,-25.491284c1.458051,-1.619756 2.682169,-2.913829 2.720257,-2.875718c0.037242,0.036126 0.50912,3.558585 1.046822,7.823324c0.53771,4.264795 1.003614,7.791871 1.035442,7.83803c0.031899,0.046413 1.402251,-0.392504 3.04547,-0.974355c9.624212,-3.408898 19.543517,-4.035264 29.633777,-1.87133c4.936489,1.05868 14.039189,3.935874 22.895881,7.23688c3.41775,1.273817 7.252758,2.530042 8.522213,2.791591c6.050052,1.246312 15.935225,0.015631 22.23689,-2.766519c1.717376,-0.758453 1.846249,-0.906776 2.304306,-2.651793c0.620433,-2.363583 0.627395,-9.084916 0.010128,-12.060941l-0.472444,-2.286116l-6.98061,-4.655026c-42.047667,-28.039692 -77.323856,-44.653996 -107.305311,-50.538371c-8.153441,-1.600242 -22.359025,-2.973074 -22.359025,-2.160784c0,0.19496 -0.085522,0.570399 -0.190223,0.834732c-0.137661,0.348659 3.958386,2.463548 14.905947,7.696134c8.302786,3.96853 15.09893,7.293055 15.102487,7.387804c0.003987,0.09486 -2.909076,1.15756 -6.472566,2.361685c-10.152783,3.430781 -16.957979,6.142106 -23.881042,9.514654c-5.726538,2.789725 -14.01426,7.605675 -14.02095,8.14754c-0.001435,0.114486 3.099308,0.490507 6.890518,0.836375l6.89315,0.628639l-3.789727,3.988388c-5.109415,5.377305 -8.067816,8.82016 -15.272542,17.773443l-6.101091,7.581831l5.333484,0.0949c2.933376,0.052076 5.330094,0.207345 5.325947,0.344544c-0.004147,0.137191 -2.466721,8.391354 -5.472445,18.342446c-3.005707,9.9511 -5.434676,18.123155 -5.397697,18.160094c0.037123,0.035966 2.600483,-0.482277 5.696561,-1.153493c3.662912,-0.794236 5.708037,-1.0968 5.854941,-0.866129c0.124319,0.194992 0.763493,8.235526 1.420721,17.867897c0.657228,9.632379 1.246336,17.570779 1.309098,17.640934c0.06277,0.070099 2.294314,-1.674527 4.959034,-3.877083c2.66472,-2.2025 4.949209,-4.003237 5.076647,-4.001586c0.127445,0.000797 4.545987,6.507233 9.819101,14.456918c5.273114,7.949637 9.702573,14.46175 9.843312,14.471352c0.140787,0.010208 2.202149,-2.241098 4.5809,-5.001532c3.460934,-4.01618 4.409266,-4.92857 4.746505,-4.566299c0.231716,0.249117 2.002356,2.391192 3.934614,4.760477c1.932242,2.369317 5.353764,6.112264 7.603395,8.317675l4.090194,4.00984l8.699756,0.00638c13.51774,0.010208 22.088455,1.410585 33.473036,5.474127l3.46784,1.237819l-1.159761,0.846255c-6.842821,4.993334 -15.518493,8.298727 -26.548768,10.114935c-3.476269,0.572344 -6.324817,0.75559 -13.138354,0.845187c-4.784872,0.063081 -10.058002,-0.020655 -11.718024,-0.187225l0.002337,0.000024z"/>
  </g>
 </g>
</svg>